<svg width="44" height="44" viewBox="0 0 44 44" fill="none" xmlns="http://www.w3.org/2000/svg">
<path d="M44 0L0 44V6C0 2.68629 2.68629 0 6 0H44Z" fill="#FDC400"/>
<path d="M9.16388 30.4345L3.62582 24.8964L6.06039 22.4618C6.6256 21.8966 7.1986 21.5777 7.77937 21.5051C8.36532 21.4273 8.88646 21.6166 9.34278 22.0729C9.65391 22.384 9.8354 22.7367 9.88725 23.1308C9.93911 23.5248 9.85355 23.9215 9.63057 24.3208L9.56835 24.2586C10.0039 23.9786 10.4369 23.8619 10.8673 23.9086C11.3029 23.9501 11.7022 24.1523 12.0651 24.5153C12.537 24.9871 12.7392 25.5264 12.6718 26.1331C12.6044 26.7295 12.27 27.3284 11.6685 27.9299L9.16388 30.4345ZM9.35834 28.6688L10.7817 27.2454C11.1499 26.8772 11.3547 26.548 11.3962 26.2576C11.4377 25.9568 11.3158 25.6638 11.0306 25.3786C10.7506 25.0986 10.4577 24.9768 10.1517 25.0131C9.84577 25.0494 9.51131 25.249 9.14833 25.612L7.72492 27.0354L9.35834 28.6688ZM6.93932 26.2498L8.22272 24.9664C8.58052 24.6086 8.78016 24.2793 8.82164 23.9786C8.86313 23.6778 8.75423 23.3978 8.49496 23.1385C8.2305 22.8741 7.95049 22.7652 7.65492 22.8118C7.35935 22.8585 7.03266 23.0607 6.67487 23.4185L5.39147 24.7019L6.93932 26.2498ZM16.2998 23.4074C15.8902 23.8171 15.452 24.0893 14.9853 24.2241C14.5238 24.3538 14.0623 24.3486 13.6008 24.2086C13.1341 24.0634 12.6907 23.7808 12.2707 23.3608C11.8559 22.9459 11.5759 22.5052 11.4307 22.0385C11.2803 21.5666 11.2699 21.0999 11.3996 20.6384C11.5344 20.1717 11.8066 19.7335 12.2163 19.3239C12.6155 18.9246 13.0459 18.6601 13.5074 18.5305C13.9741 18.3957 14.4434 18.4035 14.9153 18.5538C15.3872 18.6939 15.8305 18.9713 16.2454 19.3861C16.6654 19.8061 16.9454 20.2521 17.0854 20.724C17.2254 21.1855 17.228 21.6496 17.0932 22.1162C16.9635 22.5778 16.6991 23.0081 16.2998 23.4074ZM15.5531 22.6607C15.8746 22.3392 16.0146 21.9866 15.9731 21.6029C15.9316 21.2088 15.6957 20.7966 15.2653 20.3662C14.8401 19.941 14.433 19.7102 14.0441 19.6739C13.6552 19.6272 13.3 19.7646 12.9785 20.0861C12.6518 20.4128 12.5067 20.7758 12.543 21.1751C12.5792 21.564 12.81 21.9711 13.2352 22.3963C13.6656 22.8267 14.0778 23.0626 14.4719 23.1041C14.8608 23.1404 15.2212 22.9926 15.5531 22.6607ZM19.0595 20.5389L16.2438 17.7232C16.0571 17.5365 15.8652 17.355 15.6682 17.1787C15.4763 16.9972 15.2767 16.8287 15.0693 16.6731L15.9871 15.7553L16.8505 16.4475L16.7883 16.5564C16.6171 16.1364 16.5782 15.7294 16.6716 15.3353C16.7649 14.9308 16.9723 14.5678 17.2938 14.2463C18.2272 13.3129 19.2332 13.3855 20.3118 14.4641L22.723 16.8753L21.7507 17.8476L19.3784 15.4753C19.0724 15.1693 18.7898 15.006 18.5306 14.9852C18.2661 14.9593 18.0094 15.0708 17.7605 15.3197C17.4598 15.6205 17.3146 15.9575 17.3249 16.3309C17.3353 16.6938 17.4961 17.0309 17.8072 17.342L20.0318 19.5666L19.0595 20.5389ZM25.2164 14.4908C24.7341 14.9731 24.2389 15.2038 23.7308 15.1831C23.2226 15.152 22.6989 14.8668 22.1596 14.3275L19.7872 11.9552L20.7595 10.9829L23.1396 13.363C23.4248 13.6482 23.6945 13.7986 23.9486 13.8141C24.2026 13.8297 24.4489 13.7182 24.6875 13.4797C24.9727 13.1945 25.1075 12.873 25.0919 12.5152C25.0764 12.1574 24.913 11.8229 24.6019 11.5118L22.4163 9.32613L23.3963 8.34608L27.3243 12.2741L26.3753 13.223L25.5664 12.4141L25.6597 12.3052C25.8309 12.7045 25.8775 13.0934 25.7998 13.4719C25.7168 13.8453 25.5223 14.1849 25.2164 14.4908ZM29.8656 9.84162C29.15 10.5572 28.4215 10.9591 27.6799 11.0472L27.2677 10.0905C27.6307 10.0387 27.9729 9.92977 28.2944 9.76384C28.6159 9.5979 28.9089 9.38271 29.1734 9.11825C29.4119 8.87972 29.5545 8.65934 29.6012 8.45711C29.6478 8.25487 29.6012 8.08375 29.4611 7.94375C29.3419 7.82448 29.2045 7.77522 29.0489 7.79596C28.8882 7.81152 28.6756 7.89967 28.4111 8.06042L27.6099 8.566C27.1744 8.84601 26.7751 8.98602 26.4121 8.98602C26.0491 8.97565 25.725 8.82787 25.4398 8.54267C25.2013 8.30413 25.0587 8.02671 25.012 7.7104C24.9602 7.3889 25.0043 7.05444 25.1443 6.70702C25.2843 6.35959 25.515 6.02513 25.8365 5.70363C26.1165 5.42362 26.4303 5.19805 26.7777 5.02693C27.1199 4.85063 27.4673 4.74692 27.82 4.7158L28.2089 5.66474C27.8614 5.71141 27.5477 5.80216 27.2677 5.93698C26.9929 6.06661 26.7543 6.23255 26.5521 6.43478C26.3291 6.65775 26.1969 6.87295 26.1554 7.08037C26.1139 7.28779 26.1658 7.46409 26.311 7.60928C26.4251 7.72336 26.5521 7.77781 26.6921 7.77263C26.8373 7.76226 27.024 7.68447 27.2521 7.53928L28.0766 7.04148C28.5485 6.73554 28.9659 6.58775 29.3289 6.59812C29.6919 6.59812 30.0238 6.7485 30.3245 7.04926C30.6823 7.40705 30.8223 7.83744 30.7445 8.34043C30.6616 8.83824 30.3686 9.33863 29.8656 9.84162Z" fill="#343434"/>
</svg>
